<svg width="72" height="72" viewBox="0 0 72 72" fill="none" xmlns="http://www.w3.org/2000/svg">
<rect width="72" height="72" rx="36" fill="#FAFAFA"/>
<path d="M32.6401 39.3555C32.3502 39.0656 32.3502 38.5848 32.6401 38.2949L34.7614 36.1736L32.1098 33.5219C31.7209 33.133 31.0845 33.133 30.6956 33.5219L29.1187 35.0988C26.8913 37.3261 26.7782 41.088 29.0834 43.2234C30.137 44.1922 31.4734 44.6801 32.8169 44.6801C34.224 44.673 35.6312 44.1427 36.706 43.0679L38.4738 41.3001C38.8627 40.9112 38.8627 40.2748 38.4738 39.8859L35.8221 37.2342L33.7008 39.3555C33.4109 39.6455 32.93 39.6455 32.6401 39.3555Z" fill="#4894FE"/>
<path d="M39.1804 27.3135C37.7733 27.3206 36.3661 27.8509 35.2913 28.9257L33.5236 30.6935C33.1347 31.0824 33.1347 31.7188 33.5236 32.1077L36.1752 34.7593L38.2965 32.638C38.5865 32.3481 39.0673 32.3481 39.3572 32.638C39.6471 32.9279 39.6471 33.4088 39.3572 33.6987L37.2359 35.82L39.8875 38.4716C40.2764 38.8605 40.9128 38.8605 41.3017 38.4716L42.8786 36.8948C45.106 34.6674 45.2191 30.9056 42.9069 28.7772C41.8604 27.8014 40.5169 27.3206 39.1804 27.3135Z" fill="#4894FE"/>
<path d="M36.1753 34.7593L34.761 36.1735L35.8217 37.2342L37.2359 35.82L36.1753 34.7593Z" fill="#4894FE"/>
</svg>
