<svg width="72" height="72" viewBox="0 0 72 72" fill="none" xmlns="http://www.w3.org/2000/svg">
<rect width="72" height="72" rx="36" fill="#FAFAFA"/>
<path d="M45.9999 45.25H25.9999C25.5899 45.25 25.2499 45.59 25.2499 46C25.2499 46.41 25.5899 46.75 25.9999 46.75H45.9999C46.4099 46.75 46.7499 46.41 46.7499 46C46.7499 45.59 46.4099 45.25 45.9999 45.25Z" fill="#4894FE"/>
<path d="M41 26H31C28 26 27 27.79 27 30V46H33V39.94C33 39.42 33.42 39 33.94 39H38.07C38.58 39 39.01 39.42 39.01 39.94V46H45.01V30C45 27.79 44 26 41 26ZM38.5 33.25H36.75V35C36.75 35.41 36.41 35.75 36 35.75C35.59 35.75 35.25 35.41 35.25 35V33.25H33.5C33.09 33.25 32.75 32.91 32.75 32.5C32.75 32.09 33.09 31.75 33.5 31.75H35.25V30C35.25 29.59 35.59 29.25 36 29.25C36.41 29.25 36.75 29.59 36.75 30V31.75H38.5C38.91 31.75 39.25 32.09 39.25 32.5C39.25 32.91 38.91 33.25 38.5 33.25Z" fill="#4894FE"/>
</svg>
